<?xml version="1.0" standalone="no"?>
<!DOCTYPE svg PUBLIC "-//W3C//DTD SVG 20010904//EN"
 "http://www.w3.org/TR/2001/REC-SVG-20010904/DTD/svg10.dtd">
<svg version="1.0" xmlns="http://www.w3.org/2000/svg"
 width="561.000000pt" height="561.000000pt" viewBox="0 0 561.000000 561.000000"
 preserveAspectRatio="xMidYMid meet">
<metadata>
Created by potrace 1.14, written by Peter Selinger 2001-2017
</metadata>
<g transform="translate(0.000000,561.000000) scale(0.100000,-0.100000)"
fill="#000000" stroke="none">
<path d="M2577 4654 c-1 -1 -40 -5 -87 -9 -294 -24 -483 -134 -611 -355 -97
-168 -144 -300 -154 -430 -4 -53 -14 -92 -35 -135 -36 -76 -51 -152 -52 -266
0 -77 21 -208 40 -244 18 -37 89 -105 108 -105 16 0 17 -12 8 -59 -6 -28 -10
-32 -29 -27 -27 7 -56 -16 -73 -55 -6 -16 -9 -69 -7 -130 3 -85 0 -114 -15
-159 -11 -30 -22 -66 -24 -80 -3 -14 -5 -27 -6 -30 -5 -13 2 -80 12 -125 11
-53 41 -117 70 -150 10 -12 26 -46 37 -77 10 -30 30 -73 43 -94 41 -67 208
-415 208 -435 0 -5 4 -9 9 -9 13 0 47 -94 72 -200 12 -52 29 -111 37 -130 9
-19 16 -40 18 -45 1 -6 21 -50 44 -100 49 -103 130 -193 193 -212 47 -14 143
-9 188 10 73 31 120 110 125 207 3 62 14 72 38 36 9 -14 27 -33 41 -42 23 -15
27 -15 52 2 15 9 35 26 44 37 21 27 39 14 39 -28 0 -92 77 -204 150 -219 75
-15 109 -17 142 -8 28 8 39 6 59 -9 44 -34 145 -60 224 -58 81 2 200 41 240
79 15 14 45 24 88 30 75 11 136 33 187 67 138 92 264 296 192 311 -7 1 -36 -4
-65 -13 -79 -22 -144 -28 -152 -15 -4 7 -4 15 1 19 10 6 25 37 44 87 12 34 21
114 13 126 -5 9 -60 -17 -81 -38 -7 -8 -18 -12 -23 -9 -5 4 -9 2 -9 -2 0 -10
-36 -33 -61 -39 -11 -2 -28 -6 -38 -8 -35 -8 -52 15 -52 69 0 28 2 59 4 70 3
11 8 40 12 65 4 25 9 52 10 61 7 35 35 86 67 123 l35 40 29 -21 c66 -46 149
-52 220 -15 103 53 120 218 31 303 -21 20 -68 42 -84 39 -23 -4 -23 132 1 255
2 11 7 40 11 65 4 25 9 54 11 65 5 25 13 71 19 108 3 15 7 39 10 55 2 15 7 43
10 62 3 19 8 42 10 50 2 8 6 40 9 70 3 31 10 76 14 101 9 48 15 143 15 249 0
67 -12 210 -19 221 -2 4 -6 24 -10 45 -10 65 -61 208 -105 295 -37 75 -115
206 -129 219 -3 3 -9 12 -15 21 -5 9 -34 50 -62 92 -29 42 -53 80 -53 86 0 20
-127 121 -194 154 -59 29 -168 65 -244 82 -9 2 -55 15 -102 29 -126 37 -245
58 -405 71 -76 7 -283 13 -288 9z m-783 -2250 c-3 -13 -1 -37 5 -54 11 -32 5
-64 -10 -55 -10 7 -28 70 -34 120 -5 33 -4 34 20 23 19 -9 23 -16 19 -34z"/>
</g>
</svg>
